<svg width="624" height="362" viewBox="0 0 624 362" fill="none" xmlns="http://www.w3.org/2000/svg">
<path d="M120.637 33.8045C120.637 37.1979 117.945 39.9488 114.625 39.9488C111.306 39.9488 108.614 37.1979 108.614 33.8045C108.614 30.4111 111.306 27.6602 114.625 27.6602C117.945 27.6602 120.637 30.4111 120.637 33.8045Z" fill="#FED280"/>
<path d="M141.676 33.8045C141.676 37.1979 138.984 39.9488 135.664 39.9488C132.345 39.9488 129.653 37.1979 129.653 33.8045C129.653 30.4111 132.345 27.6602 135.664 27.6602C138.984 27.6602 141.676 30.4111 141.676 33.8045Z" fill="#8CFEE3" fill-opacity="0.9"/>
<path d="M162.718 33.8045C162.718 37.1979 160.026 39.9488 156.706 39.9488C153.387 39.9488 150.695 37.1979 150.695 33.8045C150.695 30.4111 153.387 27.6602 156.706 27.6602C160.026 27.6602 162.718 30.4111 162.718 33.8045Z" fill="#FF8DA9" fill-opacity="0.9"/>
<path d="M78.2441 17.0253C78.2441 7.62247 85.6994 0 94.8958 0H529.592C538.789 0 546.244 7.62248 546.244 17.0253V344.09C546.244 353.493 538.789 361.115 529.592 361.115H94.8958C85.6994 361.115 78.2441 353.493 78.2441 344.09V17.0253Z" fill="url(#paint0_linear_757_682)"/>
<path d="M88.5176 33.6028C88.5176 23.4576 96.5614 15.2334 106.484 15.2334H510.506C520.429 15.2334 528.473 23.4576 528.473 33.6028V33.6028C528.473 43.7479 520.429 51.9722 510.506 51.9722H106.484C96.5613 51.9722 88.5176 43.7479 88.5176 33.6028V33.6028Z" fill="url(#paint1_linear_757_682)"/>
<path d="M120.637 33.8045C120.637 37.1979 117.945 39.9488 114.625 39.9488C111.306 39.9488 108.614 37.1979 108.614 33.8045C108.614 30.4111 111.306 27.6602 114.625 27.6602C117.945 27.6602 120.637 30.4111 120.637 33.8045Z" fill="#FED280"/>
<path d="M141.676 33.8045C141.676 37.1979 138.984 39.9488 135.664 39.9488C132.345 39.9488 129.653 37.1979 129.653 33.8045C129.653 30.4111 132.345 27.6602 135.664 27.6602C138.984 27.6602 141.676 30.4111 141.676 33.8045Z" fill="#8CFEE3" fill-opacity="0.9"/>
<path d="M162.718 33.8045C162.718 37.1979 160.026 39.9488 156.706 39.9488C153.387 39.9488 150.695 37.1979 150.695 33.8045C150.695 30.4111 153.387 27.6602 156.706 27.6602C160.026 27.6602 162.718 30.4111 162.718 33.8045Z" fill="#FF8DA9" fill-opacity="0.9"/>
<path d="M88.5176 33.6028C88.5176 23.4576 96.5614 15.2334 106.484 15.2334H510.506C520.429 15.2334 528.473 23.4576 528.473 33.6028C528.473 43.7479 520.429 51.9722 510.506 51.9722H106.484C96.5613 51.9722 88.5176 43.7479 88.5176 33.6028Z" fill="url(#paint2_linear_757_682)"/>
<path fill-rule="evenodd" clip-rule="evenodd" d="M529.348 1.79213H94.6517C86.4233 1.79213 79.7528 8.61224 79.7528 17.0253V344.09C79.7528 352.503 86.4233 359.323 94.6517 359.323H529.348C537.577 359.323 544.247 352.503 544.247 344.09V17.0253C544.247 8.61225 537.577 1.79213 529.348 1.79213ZM94.6517 0C85.4552 0 78 7.62247 78 17.0253V344.09C78 353.493 85.4552 361.115 94.6517 361.115H529.348C538.545 361.115 546 353.493 546 344.09V17.0253C546 7.62248 538.545 0 529.348 0H94.6517Z" fill="url(#paint3_linear_757_682)"/>
<path d="M455.73 199.823C455.73 193.885 460.439 189.07 466.247 189.07H613.483C619.292 189.07 624 193.885 624 199.823V310.935C624 316.874 619.292 321.688 613.483 321.688H466.247C460.439 321.688 455.73 316.874 455.73 310.935V199.823Z" fill="#D11225"/>
<path d="M471.311 210.575C471.311 208.596 472.88 206.991 474.816 206.991H604.914C606.85 206.991 608.419 208.596 608.419 210.575C608.419 212.555 606.85 214.16 604.914 214.16H474.816C472.88 214.16 471.311 212.555 471.311 210.575Z" fill="url(#paint4_linear_757_682)"/>
<path d="M471.311 228.497C471.311 226.518 472.88 224.913 474.816 224.913H516.884C518.82 224.913 520.389 226.518 520.389 228.497C520.389 230.477 518.82 232.082 516.884 232.082H474.816C472.88 232.082 471.311 230.477 471.311 228.497Z" fill="url(#paint5_linear_757_682)"/>
<path d="M526.621 228.497C526.621 226.518 528.191 224.913 530.127 224.913H546.486C548.422 224.913 549.992 226.518 549.992 228.497C549.992 230.477 548.422 232.082 546.486 232.082H530.127C528.191 232.082 526.621 230.477 526.621 228.497Z" fill="url(#paint6_linear_757_682)"/>
<path d="M471.311 300.183C471.311 298.203 472.88 296.599 474.816 296.599H516.884C518.82 296.599 520.389 298.203 520.389 300.183C520.389 302.162 518.82 303.767 516.884 303.767H474.816C472.88 303.767 471.311 302.162 471.311 300.183Z" fill="url(#paint7_linear_757_682)"/>
<path d="M526.621 300.183C526.621 298.203 528.191 296.599 530.127 296.599H546.486C548.422 296.599 549.992 298.203 549.992 300.183C549.992 302.162 548.422 303.767 546.486 303.767H530.127C528.191 303.767 526.621 302.162 526.621 300.183Z" fill="url(#paint8_linear_757_682)"/>
<path d="M499.356 264.34C499.356 262.361 500.926 260.756 502.862 260.756H514.547C516.484 260.756 518.053 262.361 518.053 264.34C518.053 266.32 516.484 267.924 514.547 267.924H502.862C500.926 267.924 499.356 266.32 499.356 264.34Z" fill="url(#paint9_linear_757_682)"/>
<path d="M525.064 264.34C525.064 262.361 526.634 260.756 528.57 260.756H578.428C580.364 260.756 581.933 262.361 581.933 264.34C581.933 266.32 580.364 267.924 578.428 267.924H528.57C526.634 267.924 525.064 266.32 525.064 264.34Z" fill="url(#paint10_linear_757_682)"/>
<path d="M471.311 264.34C471.311 262.361 472.88 260.756 474.816 260.756H491.176C493.112 260.756 494.681 262.361 494.681 264.34C494.681 266.32 493.112 267.924 491.176 267.924H474.816C472.88 267.924 471.311 266.32 471.311 264.34Z" fill="url(#paint11_linear_757_682)"/>
<path d="M471.311 246.418C471.311 244.439 472.88 242.834 474.816 242.834H531.685C533.621 242.834 535.191 244.439 535.191 246.418C535.191 248.398 533.621 250.003 531.685 250.003H474.816C472.88 250.003 471.311 248.398 471.311 246.418Z" fill="url(#paint12_linear_757_682)"/>
<path d="M540.645 246.418C540.645 244.439 542.214 242.834 544.15 242.834H570.637C572.573 242.834 574.143 244.439 574.143 246.418C574.143 248.398 572.573 250.003 570.637 250.003H544.15C542.214 250.003 540.645 248.398 540.645 246.418Z" fill="url(#paint13_linear_757_682)"/>
<path d="M471.311 282.261C471.311 280.281 472.88 278.677 474.816 278.677H531.685C533.621 278.677 535.191 280.281 535.191 282.261C535.191 284.241 533.621 285.845 531.685 285.845H474.816C472.88 285.845 471.311 284.241 471.311 282.261Z" fill="url(#paint14_linear_757_682)"/>
<path fill-rule="evenodd" clip-rule="evenodd" d="M613.483 190.862H466.247C461.407 190.862 457.483 194.874 457.483 199.823V310.935C457.483 315.884 461.407 319.896 466.247 319.896H613.483C618.323 319.896 622.247 315.884 622.247 310.935V199.823C622.247 194.874 618.323 190.862 613.483 190.862ZM466.247 189.07C460.439 189.07 455.73 193.885 455.73 199.823V310.935C455.73 316.874 460.439 321.688 466.247 321.688H613.483C619.292 321.688 624 316.874 624 310.935V199.823C624 193.885 619.292 189.07 613.483 189.07H466.247Z" fill="url(#paint15_linear_757_682)"/>
<path d="M356.696 281.816C356.696 278.103 359.641 275.093 363.274 275.093H382.186C385.819 275.093 388.764 278.103 388.764 281.816V301.147C388.764 304.861 385.819 307.871 382.186 307.871H363.274C359.641 307.871 356.696 304.861 356.696 301.147V281.816Z" fill="#51CB9C"/>
<path d="M368.007 297.786L362.451 291.468L368.007 285.179H370.658L365.079 291.468L370.658 297.786H368.007Z" fill="white"/>
<path d="M374.777 285.179H377.428L383.007 291.468L377.428 297.786H374.777L380.356 291.468L374.777 285.179Z" fill="white"/>
<path d="M416.291 140.237C416.291 136.524 419.236 133.514 422.869 133.514H441.781C445.414 133.514 448.359 136.524 448.359 140.237V159.568C448.359 163.281 445.414 166.292 441.781 166.292H422.869C419.236 166.292 416.291 163.281 416.291 159.568V140.237Z" fill="#FFC04A"/>
<path d="M424.515 149.055C425.845 148.801 426.51 148.102 426.51 146.955C426.51 146.448 426.445 145.582 426.314 144.356C426.184 143.049 426.119 142.103 426.119 141.516C426.119 140.556 426.38 139.823 426.901 139.316C427.436 138.81 428.147 138.557 429.034 138.557H430.168V140.136H429.366C428.858 140.136 428.479 140.256 428.232 140.496C427.984 140.723 427.86 141.103 427.86 141.636C427.86 142.023 427.886 142.503 427.938 143.076C427.99 143.636 428.023 144.016 428.036 144.216C428.166 145.495 428.232 146.428 428.232 147.015C428.232 147.722 428.056 148.315 427.703 148.795C427.364 149.261 426.836 149.575 426.119 149.735V149.775C426.836 149.935 427.364 150.254 427.703 150.734C428.056 151.214 428.232 151.807 428.232 152.514C428.232 153.101 428.166 154.034 428.036 155.314C428.023 155.513 427.99 155.9 427.938 156.473C427.886 157.033 427.86 157.506 427.86 157.893C427.86 158.426 427.984 158.806 428.232 159.033C428.479 159.273 428.858 159.393 429.366 159.393H430.168V160.972H429.034C428.147 160.972 427.436 160.719 426.901 160.213C426.38 159.706 426.119 158.973 426.119 158.013C426.119 157.426 426.184 156.48 426.314 155.174C426.445 153.947 426.51 153.081 426.51 152.574C426.51 151.428 425.845 150.728 424.515 150.474V149.055Z" fill="#1C1E53"/>
<path d="M440.375 150.474C439.045 150.728 438.38 151.428 438.38 152.574C438.38 153.081 438.445 153.947 438.576 155.174C438.706 156.48 438.771 157.426 438.771 158.013C438.771 158.973 438.504 159.706 437.969 160.213C437.447 160.719 436.743 160.972 435.856 160.972H434.722V159.393H435.524C436.032 159.393 436.411 159.273 436.658 159.033C436.906 158.806 437.03 158.426 437.03 157.893C437.03 157.506 437.004 157.033 436.952 156.473C436.9 155.9 436.867 155.513 436.854 155.314C436.724 154.034 436.658 153.101 436.658 152.514C436.658 151.807 436.828 151.214 437.167 150.734C437.519 150.254 438.054 149.935 438.771 149.775V149.735C438.054 149.575 437.519 149.261 437.167 148.795C436.828 148.315 436.658 147.722 436.658 147.015C436.658 146.429 436.724 145.495 436.854 144.216C436.867 144.016 436.9 143.636 436.952 143.076C437.004 142.503 437.03 142.023 437.03 141.636C437.03 141.103 436.906 140.723 436.658 140.496C436.411 140.256 436.032 140.136 435.524 140.136H434.722V138.557H435.856C436.743 138.557 437.447 138.81 437.969 139.316C438.504 139.823 438.771 140.556 438.771 141.516C438.771 142.103 438.706 143.049 438.576 144.356C438.445 145.582 438.38 146.448 438.38 146.955C438.38 148.102 439.045 148.801 440.375 149.055V150.474Z" fill="#1C1E53"/>
<path fill-rule="evenodd" clip-rule="evenodd" d="M188.207 153.228C188.207 152.609 188.698 152.107 189.303 152.107H319.903V178.486C319.903 179.105 319.412 179.606 318.807 179.606C318.202 179.606 317.712 179.105 317.712 178.486V154.348H189.303C188.698 154.348 188.207 153.846 188.207 153.228Z" fill="url(#paint16_linear_757_682)"/>
<path fill-rule="evenodd" clip-rule="evenodd" d="M456.826 255.379C456.826 255.998 456.336 256.499 455.731 256.499L318.119 256.499L318.119 231.121C318.119 230.502 318.61 230 319.215 230C319.82 230 320.31 230.502 320.31 231.121L320.31 254.259L455.731 254.259C456.336 254.259 456.826 254.76 456.826 255.379Z" fill="url(#paint17_linear_757_682)"/>
<g filter="url(#filter0_d_757_682)">
<path fill-rule="evenodd" clip-rule="evenodd" d="M316.945 199.554C316.939 199.771 316.977 199.875 317.171 199.875H321.839C322.684 199.939 323.441 200.155 324.08 200.575C324.524 200.866 324.848 201.213 325.093 201.597C325.527 202.278 325.772 203.261 325.905 204.055C325.962 204.398 325.989 204.719 325.927 204.867C325.898 204.938 325.856 204.985 325.797 205.007C325.476 205.132 325.137 204.704 324.956 204.499C324.095 203.524 322.844 203.121 321.369 203.045H317.102C316.949 203.071 316.895 203.18 316.91 203.349V204.512C316.901 204.899 316.7 205.031 316.3 204.9L312.626 202.108L312.264 201.834L312.172 201.764C311.877 201.506 311.998 201.272 312.263 201.07L312.544 200.856L316.065 198.173C316.494 197.845 316.945 197.758 316.945 198.464V199.554ZM321.034 211.427C321.039 211.211 321.001 211.107 320.807 211.107H316.139C315.294 211.043 314.538 210.827 313.898 210.407C313.451 210.113 313.126 209.765 312.881 209.378C312.438 208.678 312.149 207.539 312.043 206.721C312.009 206.46 312.002 206.233 312.051 206.114C312.08 206.044 312.123 205.997 312.181 205.974C312.502 205.85 312.841 206.278 313.022 206.482C313.883 207.457 315.134 207.861 316.61 207.936H320.877C321.03 207.911 321.084 207.801 321.069 207.633V206.469C321.078 206.082 321.279 205.951 321.678 206.081L325.353 208.873L325.714 209.148L325.807 209.218C326.102 209.475 325.98 209.709 325.715 209.912L325.435 210.125L321.914 212.809C321.484 213.136 321.034 213.224 321.034 212.518L321.034 211.427Z" fill="#88F1DB"/>
</g>
<path d="M337.407 205C337.407 215.514 329.077 224 318.846 224C308.616 224 300.285 215.514 300.285 205C300.285 194.486 308.616 186 318.846 186C329.077 186 337.407 194.486 337.407 205Z" stroke="white" stroke-width="2"/>
<path d="M242.764 153.227C242.764 158.176 238.841 162.188 234 162.188C229.16 162.188 225.236 158.176 225.236 153.227C225.236 148.278 229.16 144.267 234 144.267C238.841 144.267 242.764 148.278 242.764 153.227Z" fill="#383A68"/>
<path d="M433.819 255.38C433.819 260.328 429.895 264.34 425.055 264.34C420.215 264.34 416.291 260.328 416.291 255.38C416.291 250.431 420.215 246.419 425.055 246.419C429.895 246.419 433.819 250.431 433.819 255.38Z" fill="#383A68"/>
<path fill-rule="evenodd" clip-rule="evenodd" d="M234 160.396C237.873 160.396 241.012 157.186 241.012 153.227C241.012 149.268 237.873 146.059 234 146.059C230.128 146.059 226.989 149.268 226.989 153.227C226.989 157.186 230.128 160.396 234 160.396ZM234 162.188C238.841 162.188 242.764 158.176 242.764 153.227C242.764 148.278 238.841 144.267 234 144.267C229.16 144.267 225.236 148.278 225.236 153.227C225.236 158.176 229.16 162.188 234 162.188Z" fill="#63648A"/>
<path fill-rule="evenodd" clip-rule="evenodd" d="M425.055 262.548C428.927 262.548 432.066 259.339 432.066 255.38C432.066 251.421 428.927 248.211 425.055 248.211C421.183 248.211 418.044 251.421 418.044 255.38C418.044 259.339 421.183 262.548 425.055 262.548ZM425.055 264.34C429.895 264.34 433.819 260.328 433.819 255.38C433.819 250.431 429.895 246.419 425.055 246.419C420.215 246.419 416.291 250.431 416.291 255.38C416.291 260.328 420.215 264.34 425.055 264.34Z" fill="#63648A"/>
<path d="M252.403 103.499C252.403 99.7857 255.348 96.7754 258.981 96.7754H277.893C281.526 96.7754 284.471 99.7857 284.471 103.499V122.83C284.471 126.543 281.526 129.553 277.893 129.553H258.981C255.348 129.553 252.403 126.543 252.403 122.83V103.499Z" fill="#1ABCFE"/>
<path fill-rule="evenodd" clip-rule="evenodd" d="M271.263 109.139L268.659 105.066H260.848V122.716H276.47V109.139H271.263ZM274.415 111.241H270.15L267.547 107.168H262.903V120.615H274.415V111.241Z" fill="white"/>
<path d="M0 101.256C0 95.3171 4.70856 90.5029 10.5169 90.5029H178.786C184.595 90.5029 189.303 95.3171 189.303 101.256V212.368C189.303 218.307 184.595 223.121 178.786 223.121H10.5169C4.70856 223.121 0 218.307 0 212.368V101.256Z" fill="#D11225"/>
<path d="M21.0342 125.45C21.0342 122.48 23.3885 120.073 26.2926 120.073H75.3713C78.2754 120.073 80.6297 122.48 80.6297 125.45V182.798C80.6297 185.767 78.2754 188.174 75.3713 188.174H26.2926C23.3885 188.174 21.0342 185.767 21.0342 182.798V125.45Z" fill="white" fill-opacity="0.17"/>
<path d="M92.0215 125.002C92.0215 122.28 94.1796 120.073 96.8417 120.073H159.066C161.729 120.073 163.887 122.28 163.887 125.002C163.887 127.723 161.729 129.93 159.066 129.93H96.8417C94.1796 129.93 92.0215 127.723 92.0215 125.002Z" fill="white" fill-opacity="0.6"/>
<path d="M92.0215 143.819C92.0215 141.097 94.1796 138.891 96.8417 138.891H159.066C161.729 138.891 163.887 141.097 163.887 143.819C163.887 146.541 161.729 148.747 159.066 148.747H96.8417C94.1796 148.747 92.0215 146.541 92.0215 143.819Z" fill="white" fill-opacity="0.26"/>
<path d="M92.0215 175.181C92.0215 166.025 99.2805 158.604 108.235 158.604H109.111C118.066 158.604 125.325 166.025 125.325 175.181C125.325 184.336 118.066 191.758 109.111 191.758H108.235C99.2805 191.758 92.0215 184.336 92.0215 175.181Z" fill="#767799"/>
<path d="M131.461 165.327C131.461 161.614 134.406 158.604 138.039 158.604H156.951C160.583 158.604 163.529 161.614 163.529 165.327V184.658C163.529 188.371 160.583 191.382 156.951 191.382H138.039C134.406 191.382 131.461 188.371 131.461 184.658V165.327Z" fill="#767799"/>
<path fill-rule="evenodd" clip-rule="evenodd" d="M150.684 184.393H144.759V181.872H150.684V184.393Z" fill="white"/>
<path fill-rule="evenodd" clip-rule="evenodd" d="M139.271 167.429H155.716V171.485H153.25V169.95H141.738V171.485H139.271V167.429Z" fill="white"/>
<path fill-rule="evenodd" clip-rule="evenodd" d="M146.414 183.274L146.566 168.831L149.032 168.858L148.88 183.301L146.414 183.274Z" fill="white"/>
<path d="M47.2413 153.111C45.5542 150.86 42.1332 151.008 40.6461 153.395L29.1225 171.891C27.4625 174.555 29.3783 178.006 32.5175 178.006H69.2826C72.5293 178.006 74.4235 174.342 72.546 171.693L66.0234 162.49C64.5629 160.429 61.5698 160.251 59.8755 162.124C58.2102 163.965 55.2792 163.83 53.79 161.844L47.2413 153.111Z" fill="white"/>
<path fill-rule="evenodd" clip-rule="evenodd" d="M178.786 92.2951H10.5169C5.67661 92.2951 1.75281 96.3069 1.75281 101.256V212.368C1.75281 217.317 5.67661 221.329 10.5169 221.329H178.786C183.627 221.329 187.551 217.317 187.551 212.368V101.256C187.551 96.3069 183.627 92.2951 178.786 92.2951ZM10.5169 90.5029C4.70856 90.5029 0 95.3171 0 101.256V212.368C0 218.307 4.70856 223.121 10.5169 223.121H178.786C184.595 223.121 189.303 218.307 189.303 212.368V101.256C189.303 95.3171 184.595 90.5029 178.786 90.5029H10.5169Z" fill="#D11225"/>
<path d="M69.9108 140.027C69.9108 143.243 67.3604 145.851 64.2142 145.851C61.068 145.851 58.5176 143.243 58.5176 140.027C58.5176 136.81 61.068 134.202 64.2142 134.202C67.3604 134.202 69.9108 136.81 69.9108 140.027Z" fill="#C4C5DC"/>
<defs>
<filter id="filter0_d_757_682" x="298" y="187.927" width="41.9785" height="43.1279" filterUnits="userSpaceOnUse" color-interpolation-filters="sRGB">
<feFlood flood-opacity="0" result="BackgroundImageFix"/>
<feColorMatrix in="SourceAlpha" type="matrix" values="0 0 0 0 0 0 0 0 0 0 0 0 0 0 0 0 0 0 127 0" result="hardAlpha"/>
<feOffset dy="4"/>
<feGaussianBlur stdDeviation="7"/>
<feComposite in2="hardAlpha" operator="out"/>
<feColorMatrix type="matrix" values="0 0 0 0 0.533333 0 0 0 0 0.945098 0 0 0 0 0.858824 0 0 0 1 0"/>
<feBlend mode="normal" in2="BackgroundImageFix" result="effect1_dropShadow_757_682"/>
<feBlend mode="normal" in="SourceGraphic" in2="effect1_dropShadow_757_682" result="shape"/>
</filter>
<linearGradient id="paint0_linear_757_682" x1="312.244" y1="0" x2="438.073" y2="523.581" gradientUnits="userSpaceOnUse">
<stop stop-color="white" stop-opacity="0.16"/>
<stop offset="1" stop-color="#C4C4C4" stop-opacity="0"/>
</linearGradient>
<linearGradient id="paint1_linear_757_682" x1="308.495" y1="15.2334" x2="377.694" y2="223.887" gradientUnits="userSpaceOnUse">
<stop stop-color="white" stop-opacity="0.15"/>
<stop offset="1" stop-color="#C4C4C4" stop-opacity="0"/>
</linearGradient>
<linearGradient id="paint2_linear_757_682" x1="308.495" y1="15.2334" x2="377.694" y2="223.887" gradientUnits="userSpaceOnUse">
<stop stop-color="white" stop-opacity="0.15"/>
<stop offset="1" stop-color="#C4C4C4" stop-opacity="0"/>
</linearGradient>
<linearGradient id="paint3_linear_757_682" x1="312" y1="1.34022e-05" x2="648.45" y2="237.397" gradientUnits="userSpaceOnUse">
<stop stop-color="white" stop-opacity="0.17"/>
<stop offset="1" stop-opacity="0"/>
</linearGradient>
<linearGradient id="paint4_linear_757_682" x1="539.865" y1="206.991" x2="548.861" y2="250.314" gradientUnits="userSpaceOnUse">
<stop stop-color="white" stop-opacity="0.56"/>
<stop offset="1" stop-color="#C4C4C4" stop-opacity="0"/>
</linearGradient>
<linearGradient id="paint5_linear_757_682" x1="495.85" y1="224.913" x2="515.464" y2="258.726" gradientUnits="userSpaceOnUse">
<stop stop-color="#F9C746" stop-opacity="0.52"/>
<stop offset="1" stop-color="#C4C4C4" stop-opacity="0"/>
</linearGradient>
<linearGradient id="paint6_linear_757_682" x1="538.306" y1="224.913" x2="560.469" y2="243.106" gradientUnits="userSpaceOnUse">
<stop stop-color="#84EBE5" stop-opacity="0.62"/>
<stop offset="1" stop-color="#C4C4C4" stop-opacity="0"/>
</linearGradient>
<linearGradient id="paint7_linear_757_682" x1="495.85" y1="296.599" x2="515.464" y2="330.411" gradientUnits="userSpaceOnUse">
<stop stop-color="white" stop-opacity="0.56"/>
<stop offset="1" stop-color="#C4C4C4" stop-opacity="0"/>
</linearGradient>
<linearGradient id="paint8_linear_757_682" x1="538.306" y1="296.599" x2="560.469" y2="314.791" gradientUnits="userSpaceOnUse">
<stop stop-color="#F47D9E"/>
<stop offset="1" stop-color="#C4C4C4" stop-opacity="0"/>
</linearGradient>
<linearGradient id="paint9_linear_757_682" x1="508.705" y1="260.756" x2="529.44" y2="274.373" gradientUnits="userSpaceOnUse">
<stop stop-color="#F2C87D"/>
<stop offset="1" stop-color="#C4C4C4" stop-opacity="0"/>
</linearGradient>
<linearGradient id="paint10_linear_757_682" x1="553.499" y1="260.756" x2="571.589" y2="296.89" gradientUnits="userSpaceOnUse">
<stop stop-color="white" stop-opacity="0.62"/>
<stop offset="1" stop-color="#C4C4C4" stop-opacity="0"/>
</linearGradient>
<linearGradient id="paint11_linear_757_682" x1="477.543" y1="258.964" x2="513.446" y2="263.922" gradientUnits="userSpaceOnUse">
<stop stop-color="#F37D9D"/>
<stop offset="1" stop-color="#C4C4C4" stop-opacity="0"/>
</linearGradient>
<linearGradient id="paint12_linear_757_682" x1="503.251" y1="242.834" x2="520.054" y2="280.536" gradientUnits="userSpaceOnUse">
<stop stop-color="white" stop-opacity="0.58"/>
<stop offset="1" stop-color="#C4C4C4" stop-opacity="0"/>
</linearGradient>
<linearGradient id="paint13_linear_757_682" x1="557.394" y1="242.834" x2="579.693" y2="269.072" gradientUnits="userSpaceOnUse">
<stop stop-color="white" stop-opacity="0.45"/>
<stop offset="1" stop-color="#C4C4C4" stop-opacity="0"/>
</linearGradient>
<linearGradient id="paint14_linear_757_682" x1="503.251" y1="278.677" x2="520.054" y2="316.379" gradientUnits="userSpaceOnUse">
<stop stop-color="#70D1E7"/>
<stop offset="1" stop-color="#C4C4C4" stop-opacity="0"/>
</linearGradient>
<linearGradient id="paint15_linear_757_682" x1="539.865" y1="189.07" x2="632.947" y2="520.371" gradientUnits="userSpaceOnUse">
<stop stop-color="white" stop-opacity="0.17"/>
<stop offset="1" stop-opacity="0"/>
</linearGradient>
<linearGradient id="paint16_linear_757_682" x1="307.923" y1="147.041" x2="131.513" y2="199.115" gradientUnits="userSpaceOnUse">
<stop stop-color="#767799"/>
<stop offset="1" stop-color="#767799" stop-opacity="0"/>
</linearGradient>
<linearGradient id="paint17_linear_757_682" x1="330.784" y1="261.565" x2="514.986" y2="204.292" gradientUnits="userSpaceOnUse">
<stop stop-color="#767799"/>
<stop offset="1" stop-color="#767799" stop-opacity="0"/>
</linearGradient>
</defs>
</svg>
